<?xml version="1.0" standalone="no"?>
<!DOCTYPE svg PUBLIC "-//W3C//DTD SVG 20010904//EN"
 "http://www.w3.org/TR/2001/REC-SVG-20010904/DTD/svg10.dtd">
<svg version="1.0" xmlns="http://www.w3.org/2000/svg"
 width="110.000000pt" height="37.000000pt" viewBox="0 0 110.000000 37.000000"
 preserveAspectRatio="xMidYMid meet">

<g transform="translate(0.000000,37.000000) scale(0.100000,-0.100000)"
fill="#000000" stroke="none">
<path d="M117 231 l-35 -49 42 -48 43 -48 32 44 c18 25 35 51 38 58 5 13 -63
92 -78 92 -4 0 -23 -22 -42 -49z"/>
<path d="M412 194 c-1 -45 3 -77 11 -88 17 -24 67 -24 84 0 33 45 -2 101 -56
91 -28 -6 -30 -4 -34 31 -2 21 -4 6 -5 -34z m83 -24 c25 -27 7 -70 -29 -70
-36 0 -52 34 -31 66 19 29 36 30 60 4z"/>
<path d="M564 175 c0 -50 1 -71 3 -48 2 23 2 64 0 90 -2 26 -3 8 -3 -42z"/>
<path d="M1085 250 c3 -5 8 -10 11 -10 2 0 4 5 4 10 0 6 -5 10 -11 10 -5 0 -7
-4 -4 -10z"/>
<path d="M632 193 c-7 -3 -18 -16 -23 -30 -13 -36 12 -73 49 -73 35 0 52 17
52 51 0 45 -36 69 -78 52z m53 -19 c20 -20 16 -53 -7 -68 -40 -24 -80 44 -42
71 23 17 29 16 49 -3z"/>
<path d="M759 174 c21 -27 20 -35 -7 -66 -9 -11 -11 -18 -4 -18 6 0 18 10 27
23 l16 22 20 -24 c25 -31 35 -22 10 10 -19 24 -19 25 0 48 11 13 17 26 15 29
-3 3 -14 -6 -25 -19 l-20 -24 -16 23 c-9 12 -21 22 -26 22 -6 0 -1 -12 10 -26z"/>
<path d="M950 180 c-24 -24 -25 -38 -4 -68 12 -18 24 -22 55 -20 l39 2 0 50 0
51 -35 2 c-24 2 -41 -3 -55 -17z m64 -3 c38 -27 -2 -95 -41 -71 -25 16 -29 55
-7 71 10 7 21 13 24 13 3 0 14 -6 24 -13z"/>
<path d="M1093 145 c0 -33 2 -45 4 -27 2 18 2 45 0 60 -2 15 -4 0 -4 -33z"/>
<path d="M880 100 c0 -5 5 -10 11 -10 5 0 7 5 4 10 -3 6 -8 10 -11 10 -2 0 -4
-4 -4 -10z"/>
</g>
</svg>
